<svg xmlns="http://www.w3.org/2000/svg" viewBox="8.116936742016335 -4 107.76612651596733 104" width="180" height="180" fill="none" aria-hidden="true" overflow="visible"><defs><linearGradient id="cg-gradient" x1="8" y1="20" x2="112" y2="84" gradientUnits="userSpaceOnUse"><stop offset="0%" stop-color="#22D3EE"></stop><stop offset="45%" stop-color="#60A5FA"></stop><stop offset="100%" stop-color="#D946EF"></stop></linearGradient><filter id="cg-glow" x="-50%" y="-50%" width="200%" height="200%"><feGaussianBlur stdDeviation="2.8" result="blur"></feGaussianBlur><feMerge><feMergeNode in="blur"></feMergeNode><feMergeNode in="SourceGraphic"></feMergeNode></feMerge></filter></defs><g filter="url(#cg-glow)" stroke="url(#cg-gradient)" stroke-width="2.4" opacity="0.4"><line x1="45.372312247338776" y1="48" x2="28.744624494677552" y2="38.400000000000006"></line><line x1="45.372312247338776" y1="48" x2="28.744624494677552" y2="57.6"></line><line x1="28.744624494677552" y1="57.6" x2="12.116936742016335" y2="48"></line><line x1="28.744624494677552" y1="38.400000000000006" x2="12.116936742016335" y2="48"></line><line x1="45.372312247338776" y1="28.800000000000004" x2="28.744624494677552" y2="19.200000000000003"></line><line x1="45.372312247338776" y1="28.800000000000004" x2="28.744624494677552" y2="38.400000000000006"></line><line x1="28.744624494677552" y1="38.400000000000006" x2="12.116936742016335" y2="28.800000000000004"></line><line x1="28.744624494677552" y1="19.200000000000003" x2="12.116936742016335" y2="28.800000000000004"></line><line x1="28.744624494677552" y1="38.400000000000006" x2="28.744624494677552" y2="19.200000000000003"></line><line x1="45.372312247338776" y1="48" x2="45.372312247338776" y2="28.800000000000004"></line><line x1="28.744624494677552" y1="57.6" x2="28.744624494677552" y2="38.400000000000006"></line><line x1="12.116936742016335" y1="48" x2="12.116936742016335" y2="28.800000000000004"></line><line x1="45.372312247338776" y1="48" x2="62" y2="57.6"></line><line x1="62" y1="57.6" x2="45.372312247338776" y2="67.2"></line><line x1="28.744624494677552" y1="57.6" x2="45.372312247338776" y2="67.2"></line><line x1="45.372312247338776" y1="28.800000000000004" x2="62" y2="38.400000000000006"></line><line x1="62" y1="38.400000000000006" x2="45.372312247338776" y2="48"></line><line x1="28.744624494677552" y1="38.400000000000006" x2="45.372312247338776" y2="48"></line><line x1="62" y1="57.6" x2="62" y2="38.400000000000006"></line><line x1="45.372312247338776" y1="67.2" x2="45.372312247338776" y2="48"></line><line x1="62" y1="57.6" x2="78.62768775266122" y2="67.2"></line><line x1="78.62768775266122" y1="67.2" x2="62" y2="76.8"></line><line x1="45.372312247338776" y1="67.2" x2="62" y2="76.8"></line><line x1="62" y1="38.400000000000006" x2="78.62768775266122" y2="48"></line><line x1="78.62768775266122" y1="48" x2="62" y2="57.6"></line><line x1="45.372312247338776" y1="48" x2="62" y2="57.6"></line><line x1="78.62768775266122" y1="67.2" x2="78.62768775266122" y2="48"></line><line x1="62" y1="76.8" x2="62" y2="57.6"></line><line x1="78.62768775266122" y1="67.2" x2="95.25537550532245" y2="76.8"></line><line x1="95.25537550532245" y1="76.8" x2="78.62768775266122" y2="86.4"></line><line x1="62" y1="76.8" x2="78.62768775266122" y2="86.4"></line><line x1="78.62768775266122" y1="48" x2="95.25537550532245" y2="57.6"></line><line x1="95.25537550532245" y1="57.6" x2="78.62768775266122" y2="67.19999999999999"></line><line x1="62" y1="57.6" x2="78.62768775266122" y2="67.19999999999999"></line><line x1="95.25537550532245" y1="76.8" x2="95.25537550532245" y2="57.6"></line><line x1="78.62768775266122" y1="86.4" x2="78.62768775266122" y2="67.19999999999999"></line><line x1="95.25537550532245" y1="76.8" x2="111.88306325798366" y2="86.4"></line><line x1="111.88306325798366" y1="86.4" x2="95.25537550532245" y2="96"></line><line x1="78.62768775266122" y1="86.4" x2="95.25537550532245" y2="96"></line><line x1="95.25537550532245" y1="57.6" x2="111.88306325798366" y2="67.19999999999999"></line><line x1="111.88306325798366" y1="67.19999999999999" x2="95.25537550532245" y2="76.8"></line><line x1="78.62768775266122" y1="67.19999999999999" x2="95.25537550532245" y2="76.8"></line><line x1="111.88306325798366" y1="86.4" x2="111.88306325798366" y2="67.19999999999999"></line><line x1="95.25537550532245" y1="96" x2="95.25537550532245" y2="76.8"></line><line x1="45.372312247338776" y1="67.2" x2="28.744624494677552" y2="76.8"></line><line x1="12.116936742016335" y1="67.2" x2="28.744624494677552" y2="76.8"></line><line x1="28.744624494677552" y1="57.6" x2="12.116936742016335" y2="67.2"></line><line x1="45.372312247338776" y1="48" x2="28.744624494677552" y2="57.6"></line><line x1="12.116936742016335" y1="48" x2="28.744624494677552" y2="57.6"></line><line x1="28.744624494677552" y1="38.400000000000006" x2="12.116936742016335" y2="48"></line><line x1="28.744624494677552" y1="76.8" x2="28.744624494677552" y2="57.6"></line><line x1="12.116936742016335" y1="67.2" x2="12.116936742016335" y2="48"></line><line x1="62" y1="76.8" x2="45.372312247338776" y2="86.4"></line><line x1="28.744624494677552" y1="76.8" x2="45.372312247338776" y2="86.4"></line><line x1="62" y1="57.6" x2="45.372312247338776" y2="67.19999999999999"></line><line x1="28.744624494677552" y1="57.6" x2="45.372312247338776" y2="67.19999999999999"></line><line x1="45.372312247338776" y1="86.4" x2="45.372312247338776" y2="67.19999999999999"></line><line x1="78.62768775266122" y1="86.4" x2="62" y2="96"></line><line x1="45.372312247338776" y1="86.4" x2="62" y2="96"></line><line x1="78.62768775266122" y1="67.19999999999999" x2="62" y2="76.8"></line><line x1="45.372312247338776" y1="67.19999999999999" x2="62" y2="76.8"></line><line x1="62" y1="96" x2="62" y2="76.8"></line><line x1="62" y1="38.400000000000006" x2="78.62768775266122" y2="48"></line><line x1="78.62768775266122" y1="48" x2="62" y2="57.6"></line><line x1="62" y1="38.400000000000006" x2="45.372312247338776" y2="48"></line><line x1="62" y1="19.200000000000003" x2="78.62768775266122" y2="28.800000000000004"></line><line x1="78.62768775266122" y1="28.800000000000004" x2="62" y2="38.400000000000006"></line><line x1="62" y1="19.200000000000003" x2="45.372312247338776" y2="28.800000000000004"></line><line x1="62" y1="38.400000000000006" x2="62" y2="19.200000000000003"></line><line x1="78.62768775266122" y1="48" x2="78.62768775266122" y2="28.800000000000004"></line><line x1="78.62768775266122" y1="48" x2="95.25537550532245" y2="57.6"></line><line x1="95.25537550532245" y1="57.6" x2="78.62768775266122" y2="67.2"></line><line x1="78.62768775266122" y1="28.800000000000004" x2="95.25537550532245" y2="38.400000000000006"></line><line x1="95.25537550532245" y1="38.400000000000006" x2="78.62768775266122" y2="48"></line><line x1="95.25537550532245" y1="57.6" x2="95.25537550532245" y2="38.400000000000006"></line><line x1="95.25537550532245" y1="57.6" x2="111.88306325798366" y2="67.2"></line><line x1="111.88306325798366" y1="67.2" x2="95.25537550532245" y2="76.8"></line><line x1="95.25537550532245" y1="38.400000000000006" x2="111.88306325798366" y2="48"></line><line x1="111.88306325798366" y1="48" x2="95.25537550532245" y2="57.6"></line><line x1="111.88306325798366" y1="67.2" x2="111.88306325798366" y2="48"></line><line x1="45.372312247338776" y1="9.600000000000001" x2="62" y2="19.200000000000003"></line><line x1="62" y1="19.200000000000003" x2="45.372312247338776" y2="28.800000000000004"></line><line x1="28.744624494677552" y1="19.200000000000003" x2="45.372312247338776" y2="28.800000000000004"></line><line x1="45.372312247338776" y1="9.600000000000001" x2="28.744624494677552" y2="19.200000000000003"></line><line x1="45.372312247338776" y1="28.800000000000004" x2="45.372312247338776" y2="9.600000000000001"></line><line x1="62" y1="38.400000000000006" x2="62" y2="19.200000000000003"></line><line x1="45.372312247338776" y1="48" x2="45.372312247338776" y2="28.800000000000004"></line><line x1="28.744624494677552" y1="38.400000000000006" x2="28.744624494677552" y2="19.200000000000003"></line><line x1="62" y1="19.200000000000003" x2="78.62768775266122" y2="28.800000000000004"></line><line x1="78.62768775266122" y1="28.800000000000004" x2="62" y2="38.400000000000006"></line><line x1="45.372312247338776" y1="28.800000000000004" x2="62" y2="38.400000000000006"></line><line x1="78.62768775266122" y1="48" x2="78.62768775266122" y2="28.800000000000004"></line><line x1="62" y1="57.6" x2="62" y2="38.400000000000006"></line><line x1="78.62768775266122" y1="28.800000000000004" x2="95.25537550532245" y2="38.400000000000006"></line><line x1="95.25537550532245" y1="38.400000000000006" x2="78.62768775266122" y2="48"></line><line x1="62" y1="38.400000000000006" x2="78.62768775266122" y2="48"></line><line x1="95.25537550532245" y1="57.6" x2="95.25537550532245" y2="38.400000000000006"></line><line x1="78.62768775266122" y1="67.19999999999999" x2="78.62768775266122" y2="48"></line><line x1="62" y1="38.400000000000006" x2="45.372312247338776" y2="48"></line><line x1="28.744624494677552" y1="38.400000000000006" x2="45.372312247338776" y2="48"></line><line x1="45.372312247338776" y1="28.800000000000004" x2="28.744624494677552" y2="38.400000000000006"></line><line x1="45.372312247338776" y1="67.19999999999999" x2="45.372312247338776" y2="48"></line><line x1="28.744624494677552" y1="57.6" x2="28.744624494677552" y2="38.400000000000006"></line><line x1="78.62768775266122" y1="9.600000000000001" x2="95.25537550532245" y2="19.200000000000003"></line><line x1="95.25537550532245" y1="19.200000000000003" x2="78.62768775266122" y2="28.800000000000004"></line><line x1="78.62768775266122" y1="9.600000000000001" x2="62" y2="19.200000000000003"></line><line x1="78.62768775266122" y1="28.800000000000004" x2="78.62768775266122" y2="9.600000000000001"></line><line x1="95.25537550532245" y1="38.400000000000006" x2="95.25537550532245" y2="19.200000000000003"></line><line x1="62" y1="0" x2="78.62768775266122" y2="9.600000000000001"></line><line x1="78.62768775266122" y1="9.600000000000001" x2="62" y2="19.200000000000003"></line><line x1="45.372312247338776" y1="9.600000000000001" x2="62" y2="19.200000000000003"></line><line x1="62" y1="0" x2="45.372312247338776" y2="9.600000000000001"></line><line x1="62" y1="19.200000000000003" x2="62" y2="0"></line><line x1="78.62768775266122" y1="28.800000000000004" x2="78.62768775266122" y2="9.600000000000001"></line><line x1="62" y1="38.400000000000006" x2="62" y2="19.200000000000003"></line><line x1="45.372312247338776" y1="28.800000000000004" x2="45.372312247338776" y2="9.600000000000001"></line></g><g stroke="url(#cg-gradient)" stroke-width="1.3" stroke-linecap="round" stroke-linejoin="round"><line x1="45.372312247338776" y1="48" x2="28.744624494677552" y2="38.400000000000006"></line><line x1="45.372312247338776" y1="48" x2="28.744624494677552" y2="57.6"></line><line x1="28.744624494677552" y1="57.6" x2="12.116936742016335" y2="48"></line><line x1="28.744624494677552" y1="38.400000000000006" x2="12.116936742016335" y2="48"></line><line x1="45.372312247338776" y1="28.800000000000004" x2="28.744624494677552" y2="19.200000000000003"></line><line x1="45.372312247338776" y1="28.800000000000004" x2="28.744624494677552" y2="38.400000000000006"></line><line x1="28.744624494677552" y1="38.400000000000006" x2="12.116936742016335" y2="28.800000000000004"></line><line x1="28.744624494677552" y1="19.200000000000003" x2="12.116936742016335" y2="28.800000000000004"></line><line x1="28.744624494677552" y1="38.400000000000006" x2="28.744624494677552" y2="19.200000000000003"></line><line x1="45.372312247338776" y1="48" x2="45.372312247338776" y2="28.800000000000004"></line><line x1="28.744624494677552" y1="57.6" x2="28.744624494677552" y2="38.400000000000006"></line><line x1="12.116936742016335" y1="48" x2="12.116936742016335" y2="28.800000000000004"></line><line x1="45.372312247338776" y1="48" x2="62" y2="57.6"></line><line x1="62" y1="57.6" x2="45.372312247338776" y2="67.2"></line><line x1="28.744624494677552" y1="57.6" x2="45.372312247338776" y2="67.2"></line><line x1="45.372312247338776" y1="28.800000000000004" x2="62" y2="38.400000000000006"></line><line x1="62" y1="38.400000000000006" x2="45.372312247338776" y2="48"></line><line x1="28.744624494677552" y1="38.400000000000006" x2="45.372312247338776" y2="48"></line><line x1="62" y1="57.6" x2="62" y2="38.400000000000006"></line><line x1="45.372312247338776" y1="67.2" x2="45.372312247338776" y2="48"></line><line x1="62" y1="57.6" x2="78.62768775266122" y2="67.2"></line><line x1="78.62768775266122" y1="67.2" x2="62" y2="76.8"></line><line x1="45.372312247338776" y1="67.2" x2="62" y2="76.8"></line><line x1="62" y1="38.400000000000006" x2="78.62768775266122" y2="48"></line><line x1="78.62768775266122" y1="48" x2="62" y2="57.6"></line><line x1="45.372312247338776" y1="48" x2="62" y2="57.6"></line><line x1="78.62768775266122" y1="67.2" x2="78.62768775266122" y2="48"></line><line x1="62" y1="76.8" x2="62" y2="57.6"></line><line x1="78.62768775266122" y1="67.2" x2="95.25537550532245" y2="76.8"></line><line x1="95.25537550532245" y1="76.8" x2="78.62768775266122" y2="86.4"></line><line x1="62" y1="76.8" x2="78.62768775266122" y2="86.4"></line><line x1="78.62768775266122" y1="48" x2="95.25537550532245" y2="57.6"></line><line x1="95.25537550532245" y1="57.6" x2="78.62768775266122" y2="67.19999999999999"></line><line x1="62" y1="57.6" x2="78.62768775266122" y2="67.19999999999999"></line><line x1="95.25537550532245" y1="76.8" x2="95.25537550532245" y2="57.6"></line><line x1="78.62768775266122" y1="86.4" x2="78.62768775266122" y2="67.19999999999999"></line><line x1="95.25537550532245" y1="76.8" x2="111.88306325798366" y2="86.4"></line><line x1="111.88306325798366" y1="86.4" x2="95.25537550532245" y2="96"></line><line x1="78.62768775266122" y1="86.4" x2="95.25537550532245" y2="96"></line><line x1="95.25537550532245" y1="57.6" x2="111.88306325798366" y2="67.19999999999999"></line><line x1="111.88306325798366" y1="67.19999999999999" x2="95.25537550532245" y2="76.8"></line><line x1="78.62768775266122" y1="67.19999999999999" x2="95.25537550532245" y2="76.8"></line><line x1="111.88306325798366" y1="86.4" x2="111.88306325798366" y2="67.19999999999999"></line><line x1="95.25537550532245" y1="96" x2="95.25537550532245" y2="76.8"></line><line x1="45.372312247338776" y1="67.2" x2="28.744624494677552" y2="76.8"></line><line x1="12.116936742016335" y1="67.2" x2="28.744624494677552" y2="76.8"></line><line x1="28.744624494677552" y1="57.6" x2="12.116936742016335" y2="67.2"></line><line x1="45.372312247338776" y1="48" x2="28.744624494677552" y2="57.6"></line><line x1="12.116936742016335" y1="48" x2="28.744624494677552" y2="57.6"></line><line x1="28.744624494677552" y1="38.400000000000006" x2="12.116936742016335" y2="48"></line><line x1="28.744624494677552" y1="76.8" x2="28.744624494677552" y2="57.6"></line><line x1="12.116936742016335" y1="67.2" x2="12.116936742016335" y2="48"></line><line x1="62" y1="76.8" x2="45.372312247338776" y2="86.4"></line><line x1="28.744624494677552" y1="76.8" x2="45.372312247338776" y2="86.4"></line><line x1="62" y1="57.6" x2="45.372312247338776" y2="67.19999999999999"></line><line x1="28.744624494677552" y1="57.6" x2="45.372312247338776" y2="67.19999999999999"></line><line x1="45.372312247338776" y1="86.4" x2="45.372312247338776" y2="67.19999999999999"></line><line x1="78.62768775266122" y1="86.4" x2="62" y2="96"></line><line x1="45.372312247338776" y1="86.4" x2="62" y2="96"></line><line x1="78.62768775266122" y1="67.19999999999999" x2="62" y2="76.8"></line><line x1="45.372312247338776" y1="67.19999999999999" x2="62" y2="76.8"></line><line x1="62" y1="96" x2="62" y2="76.8"></line><line x1="62" y1="38.400000000000006" x2="78.62768775266122" y2="48"></line><line x1="78.62768775266122" y1="48" x2="62" y2="57.6"></line><line x1="62" y1="38.400000000000006" x2="45.372312247338776" y2="48"></line><line x1="62" y1="19.200000000000003" x2="78.62768775266122" y2="28.800000000000004"></line><line x1="78.62768775266122" y1="28.800000000000004" x2="62" y2="38.400000000000006"></line><line x1="62" y1="19.200000000000003" x2="45.372312247338776" y2="28.800000000000004"></line><line x1="62" y1="38.400000000000006" x2="62" y2="19.200000000000003"></line><line x1="78.62768775266122" y1="48" x2="78.62768775266122" y2="28.800000000000004"></line><line x1="78.62768775266122" y1="48" x2="95.25537550532245" y2="57.6"></line><line x1="95.25537550532245" y1="57.6" x2="78.62768775266122" y2="67.2"></line><line x1="78.62768775266122" y1="28.800000000000004" x2="95.25537550532245" y2="38.400000000000006"></line><line x1="95.25537550532245" y1="38.400000000000006" x2="78.62768775266122" y2="48"></line><line x1="95.25537550532245" y1="57.6" x2="95.25537550532245" y2="38.400000000000006"></line><line x1="95.25537550532245" y1="57.6" x2="111.88306325798366" y2="67.2"></line><line x1="111.88306325798366" y1="67.2" x2="95.25537550532245" y2="76.8"></line><line x1="95.25537550532245" y1="38.400000000000006" x2="111.88306325798366" y2="48"></line><line x1="111.88306325798366" y1="48" x2="95.25537550532245" y2="57.6"></line><line x1="111.88306325798366" y1="67.2" x2="111.88306325798366" y2="48"></line><line x1="45.372312247338776" y1="9.600000000000001" x2="62" y2="19.200000000000003"></line><line x1="62" y1="19.200000000000003" x2="45.372312247338776" y2="28.800000000000004"></line><line x1="28.744624494677552" y1="19.200000000000003" x2="45.372312247338776" y2="28.800000000000004"></line><line x1="45.372312247338776" y1="9.600000000000001" x2="28.744624494677552" y2="19.200000000000003"></line><line x1="45.372312247338776" y1="28.800000000000004" x2="45.372312247338776" y2="9.600000000000001"></line><line x1="62" y1="38.400000000000006" x2="62" y2="19.200000000000003"></line><line x1="45.372312247338776" y1="48" x2="45.372312247338776" y2="28.800000000000004"></line><line x1="28.744624494677552" y1="38.400000000000006" x2="28.744624494677552" y2="19.200000000000003"></line><line x1="62" y1="19.200000000000003" x2="78.62768775266122" y2="28.800000000000004"></line><line x1="78.62768775266122" y1="28.800000000000004" x2="62" y2="38.400000000000006"></line><line x1="45.372312247338776" y1="28.800000000000004" x2="62" y2="38.400000000000006"></line><line x1="78.62768775266122" y1="48" x2="78.62768775266122" y2="28.800000000000004"></line><line x1="62" y1="57.6" x2="62" y2="38.400000000000006"></line><line x1="78.62768775266122" y1="28.800000000000004" x2="95.25537550532245" y2="38.400000000000006"></line><line x1="95.25537550532245" y1="38.400000000000006" x2="78.62768775266122" y2="48"></line><line x1="62" y1="38.400000000000006" x2="78.62768775266122" y2="48"></line><line x1="95.25537550532245" y1="57.6" x2="95.25537550532245" y2="38.400000000000006"></line><line x1="78.62768775266122" y1="67.19999999999999" x2="78.62768775266122" y2="48"></line><line x1="62" y1="38.400000000000006" x2="45.372312247338776" y2="48"></line><line x1="28.744624494677552" y1="38.400000000000006" x2="45.372312247338776" y2="48"></line><line x1="45.372312247338776" y1="28.800000000000004" x2="28.744624494677552" y2="38.400000000000006"></line><line x1="45.372312247338776" y1="67.19999999999999" x2="45.372312247338776" y2="48"></line><line x1="28.744624494677552" y1="57.6" x2="28.744624494677552" y2="38.400000000000006"></line><line x1="78.62768775266122" y1="9.600000000000001" x2="95.25537550532245" y2="19.200000000000003"></line><line x1="95.25537550532245" y1="19.200000000000003" x2="78.62768775266122" y2="28.800000000000004"></line><line x1="78.62768775266122" y1="9.600000000000001" x2="62" y2="19.200000000000003"></line><line x1="78.62768775266122" y1="28.800000000000004" x2="78.62768775266122" y2="9.600000000000001"></line><line x1="95.25537550532245" y1="38.400000000000006" x2="95.25537550532245" y2="19.200000000000003"></line><line x1="62" y1="0" x2="78.62768775266122" y2="9.600000000000001"></line><line x1="78.62768775266122" y1="9.600000000000001" x2="62" y2="19.200000000000003"></line><line x1="45.372312247338776" y1="9.600000000000001" x2="62" y2="19.200000000000003"></line><line x1="62" y1="0" x2="45.372312247338776" y2="9.600000000000001"></line><line x1="62" y1="19.200000000000003" x2="62" y2="0"></line><line x1="78.62768775266122" y1="28.800000000000004" x2="78.62768775266122" y2="9.600000000000001"></line><line x1="62" y1="38.400000000000006" x2="62" y2="19.200000000000003"></line><line x1="45.372312247338776" y1="28.800000000000004" x2="45.372312247338776" y2="9.600000000000001"></line></g><g filter="url(#cg-glow)"><circle cx="28.744624494677552" cy="38.400000000000006" r="2" fill="white"></circle><circle cx="45.372312247338776" cy="48" r="2" fill="white"></circle><circle cx="28.744624494677552" cy="57.6" r="2" fill="white"></circle><circle cx="12.116936742016335" cy="48" r="2" fill="white"></circle><circle cx="28.744624494677552" cy="19.200000000000003" r="2" fill="white"></circle><circle cx="45.372312247338776" cy="28.800000000000004" r="2" fill="white"></circle><circle cx="28.744624494677552" cy="38.400000000000006" r="2" fill="white"></circle><circle cx="12.116936742016335" cy="28.800000000000004" r="2" fill="white"></circle><circle cx="62" cy="57.6" r="2" fill="white"></circle><circle cx="45.372312247338776" cy="67.2" r="2" fill="white"></circle><circle cx="62" cy="38.400000000000006" r="2" fill="white"></circle><circle cx="45.372312247338776" cy="48" r="2" fill="white"></circle><circle cx="78.62768775266122" cy="67.2" r="2" fill="white"></circle><circle cx="62" cy="76.8" r="2" fill="white"></circle><circle cx="78.62768775266122" cy="48" r="2" fill="white"></circle><circle cx="62" cy="57.6" r="2" fill="white"></circle><circle cx="95.25537550532245" cy="76.8" r="2" fill="white"></circle><circle cx="78.62768775266122" cy="86.4" r="2" fill="white"></circle><circle cx="95.25537550532245" cy="57.6" r="2" fill="white"></circle><circle cx="78.62768775266122" cy="67.19999999999999" r="2" fill="white"></circle><circle cx="111.88306325798366" cy="86.4" r="2" fill="white"></circle><circle cx="95.25537550532245" cy="96" r="2" fill="white"></circle><circle cx="111.88306325798366" cy="67.19999999999999" r="2" fill="white"></circle><circle cx="95.25537550532245" cy="76.8" r="2" fill="white"></circle><circle cx="28.744624494677552" cy="76.8" r="2" fill="white"></circle><circle cx="12.116936742016335" cy="67.2" r="2" fill="white"></circle><circle cx="28.744624494677552" cy="57.6" r="2" fill="white"></circle><circle cx="12.116936742016335" cy="48" r="2" fill="white"></circle><circle cx="45.372312247338776" cy="86.4" r="2" fill="white"></circle><circle cx="45.372312247338776" cy="67.19999999999999" r="2" fill="white"></circle><circle cx="62" cy="96" r="2" fill="white"></circle><circle cx="62" cy="76.8" r="2" fill="white"></circle><circle cx="62" cy="38.400000000000006" r="2" fill="white"></circle><circle cx="78.62768775266122" cy="48" r="2" fill="white"></circle><circle cx="62" cy="19.200000000000003" r="2" fill="white"></circle><circle cx="78.62768775266122" cy="28.800000000000004" r="2" fill="white"></circle><circle cx="95.25537550532245" cy="57.6" r="2" fill="white"></circle><circle cx="95.25537550532245" cy="38.400000000000006" r="2" fill="white"></circle><circle cx="111.88306325798366" cy="67.2" r="2" fill="white"></circle><circle cx="111.88306325798366" cy="48" r="2" fill="white"></circle><circle cx="45.372312247338776" cy="9.600000000000001" r="2" fill="white"></circle><circle cx="62" cy="19.200000000000003" r="2" fill="white"></circle><circle cx="45.372312247338776" cy="28.800000000000004" r="2" fill="white"></circle><circle cx="28.744624494677552" cy="19.200000000000003" r="2" fill="white"></circle><circle cx="78.62768775266122" cy="28.800000000000004" r="2" fill="white"></circle><circle cx="62" cy="38.400000000000006" r="2" fill="white"></circle><circle cx="95.25537550532245" cy="38.400000000000006" r="2" fill="white"></circle><circle cx="78.62768775266122" cy="48" r="2" fill="white"></circle><circle cx="45.372312247338776" cy="48" r="2" fill="white"></circle><circle cx="28.744624494677552" cy="38.400000000000006" r="2" fill="white"></circle><circle cx="78.62768775266122" cy="9.600000000000001" r="2" fill="white"></circle><circle cx="95.25537550532245" cy="19.200000000000003" r="2" fill="white"></circle><circle cx="62" cy="0" r="2" fill="white"></circle><circle cx="78.62768775266122" cy="9.600000000000001" r="2" fill="white"></circle><circle cx="62" cy="19.200000000000003" r="2" fill="white"></circle><circle cx="45.372312247338776" cy="9.600000000000001" r="2" fill="white"></circle></g></svg>