<svg xmlns="http://www.w3.org/2000/svg" viewBox="0 0 124 96" width="180" height="180" fill="none" aria-hidden="true"><defs><linearGradient id="cg-gradient" x1="8" y1="20" x2="112" y2="84" gradientUnits="userSpaceOnUse"><stop offset="0%" stop-color="#22D3EE"></stop><stop offset="45%" stop-color="#60A5FA"></stop><stop offset="100%" stop-color="#D946EF"></stop></linearGradient><filter id="cg-glow" x="-50%" y="-50%" width="200%" height="200%"><feGaussianBlur stdDeviation="2.8" result="blur"></feGaussianBlur><feMerge><feMergeNode in="blur"></feMergeNode><feMergeNode in="SourceGraphic"></feMergeNode></feMerge></filter></defs><g filter="url(#cg-glow)" stroke="url(#cg-gradient)" stroke-width="2.4" opacity="0.4"><line x1="51.607695154586736" y1="48" x2="41.21539030917347" y2="42"></line><line x1="51.607695154586736" y1="48" x2="41.21539030917347" y2="54"></line><line x1="41.21539030917347" y1="54" x2="30.823085463760208" y2="48"></line><line x1="41.21539030917347" y1="42" x2="30.823085463760208" y2="48"></line><line x1="51.607695154586736" y1="36" x2="41.21539030917347" y2="30"></line><line x1="51.607695154586736" y1="36" x2="41.21539030917347" y2="42"></line><line x1="41.21539030917347" y1="42" x2="30.823085463760208" y2="36"></line><line x1="41.21539030917347" y1="30" x2="30.823085463760208" y2="36"></line><line x1="41.21539030917347" y1="42" x2="41.21539030917347" y2="30"></line><line x1="51.607695154586736" y1="48" x2="51.607695154586736" y2="36"></line><line x1="41.21539030917347" y1="54" x2="41.21539030917347" y2="42"></line><line x1="30.823085463760208" y1="48" x2="30.823085463760208" y2="36"></line><line x1="51.607695154586736" y1="48" x2="62" y2="54"></line><line x1="62" y1="54" x2="51.607695154586736" y2="60"></line><line x1="41.21539030917347" y1="54" x2="51.607695154586736" y2="60"></line><line x1="51.607695154586736" y1="36" x2="62" y2="42"></line><line x1="62" y1="42" x2="51.607695154586736" y2="48"></line><line x1="41.21539030917347" y1="42" x2="51.607695154586736" y2="48"></line><line x1="62" y1="54" x2="62" y2="42"></line><line x1="51.607695154586736" y1="60" x2="51.607695154586736" y2="48"></line><line x1="62" y1="54" x2="72.39230484541326" y2="60"></line><line x1="72.39230484541326" y1="60" x2="62" y2="66"></line><line x1="51.607695154586736" y1="60" x2="62" y2="66"></line><line x1="62" y1="42" x2="72.39230484541326" y2="48"></line><line x1="72.39230484541326" y1="48" x2="62" y2="54"></line><line x1="51.607695154586736" y1="48" x2="62" y2="54"></line><line x1="72.39230484541326" y1="60" x2="72.39230484541326" y2="48"></line><line x1="62" y1="66" x2="62" y2="54"></line><line x1="72.39230484541326" y1="60" x2="82.78460969082653" y2="66"></line><line x1="82.78460969082653" y1="66" x2="72.39230484541326" y2="72"></line><line x1="62" y1="66" x2="72.39230484541326" y2="72"></line><line x1="72.39230484541326" y1="48" x2="82.78460969082653" y2="54"></line><line x1="82.78460969082653" y1="54" x2="72.39230484541326" y2="60"></line><line x1="62" y1="54" x2="72.39230484541326" y2="60"></line><line x1="82.78460969082653" y1="66" x2="82.78460969082653" y2="54"></line><line x1="72.39230484541326" y1="72" x2="72.39230484541326" y2="60"></line><line x1="82.78460969082653" y1="66" x2="93.17691453623979" y2="72"></line><line x1="93.17691453623979" y1="72" x2="82.78460969082653" y2="78"></line><line x1="72.39230484541326" y1="72" x2="82.78460969082653" y2="78"></line><line x1="82.78460969082653" y1="54" x2="93.17691453623979" y2="60"></line><line x1="93.17691453623979" y1="60" x2="82.78460969082653" y2="66"></line><line x1="72.39230484541326" y1="60" x2="82.78460969082653" y2="66"></line><line x1="93.17691453623979" y1="72" x2="93.17691453623979" y2="60"></line><line x1="82.78460969082653" y1="78" x2="82.78460969082653" y2="66"></line><line x1="51.607695154586736" y1="60" x2="41.21539030917347" y2="66"></line><line x1="30.823085463760208" y1="60" x2="41.21539030917347" y2="66"></line><line x1="41.21539030917347" y1="54" x2="30.823085463760208" y2="60"></line><line x1="51.607695154586736" y1="48" x2="41.21539030917347" y2="54"></line><line x1="30.823085463760208" y1="48" x2="41.21539030917347" y2="54"></line><line x1="41.21539030917347" y1="42" x2="30.823085463760208" y2="48"></line><line x1="41.21539030917347" y1="66" x2="41.21539030917347" y2="54"></line><line x1="30.823085463760208" y1="60" x2="30.823085463760208" y2="48"></line><line x1="62" y1="66" x2="51.607695154586736" y2="72"></line><line x1="41.21539030917347" y1="66" x2="51.607695154586736" y2="72"></line><line x1="62" y1="54" x2="51.607695154586736" y2="60"></line><line x1="41.21539030917347" y1="54" x2="51.607695154586736" y2="60"></line><line x1="51.607695154586736" y1="72" x2="51.607695154586736" y2="60"></line><line x1="72.39230484541326" y1="72" x2="62" y2="78"></line><line x1="51.607695154586736" y1="72" x2="62" y2="78"></line><line x1="72.39230484541326" y1="60" x2="62" y2="66"></line><line x1="51.607695154586736" y1="60" x2="62" y2="66"></line><line x1="62" y1="78" x2="62" y2="66"></line><line x1="62" y1="42" x2="72.39230484541326" y2="48"></line><line x1="72.39230484541326" y1="48" x2="62" y2="54"></line><line x1="62" y1="42" x2="51.607695154586736" y2="48"></line><line x1="62" y1="30" x2="72.39230484541326" y2="36"></line><line x1="72.39230484541326" y1="36" x2="62" y2="42"></line><line x1="62" y1="30" x2="51.607695154586736" y2="36"></line><line x1="62" y1="42" x2="62" y2="30"></line><line x1="72.39230484541326" y1="48" x2="72.39230484541326" y2="36"></line><line x1="72.39230484541326" y1="48" x2="82.78460969082653" y2="54"></line><line x1="82.78460969082653" y1="54" x2="72.39230484541326" y2="60"></line><line x1="72.39230484541326" y1="36" x2="82.78460969082653" y2="42"></line><line x1="82.78460969082653" y1="42" x2="72.39230484541326" y2="48"></line><line x1="82.78460969082653" y1="54" x2="82.78460969082653" y2="42"></line><line x1="82.78460969082653" y1="54" x2="93.17691453623979" y2="60"></line><line x1="93.17691453623979" y1="60" x2="82.78460969082653" y2="66"></line><line x1="82.78460969082653" y1="42" x2="93.17691453623979" y2="48"></line><line x1="93.17691453623979" y1="48" x2="82.78460969082653" y2="54"></line><line x1="93.17691453623979" y1="60" x2="93.17691453623979" y2="48"></line><line x1="51.607695154586736" y1="24" x2="62" y2="30"></line><line x1="62" y1="30" x2="51.607695154586736" y2="36"></line><line x1="41.21539030917347" y1="30" x2="51.607695154586736" y2="36"></line><line x1="51.607695154586736" y1="24" x2="41.21539030917347" y2="30"></line><line x1="51.607695154586736" y1="36" x2="51.607695154586736" y2="24"></line><line x1="62" y1="42" x2="62" y2="30"></line><line x1="51.607695154586736" y1="48" x2="51.607695154586736" y2="36"></line><line x1="41.21539030917347" y1="42" x2="41.21539030917347" y2="30"></line><line x1="62" y1="30" x2="72.39230484541326" y2="36"></line><line x1="72.39230484541326" y1="36" x2="62" y2="42"></line><line x1="51.607695154586736" y1="36" x2="62" y2="42"></line><line x1="72.39230484541326" y1="48" x2="72.39230484541326" y2="36"></line><line x1="62" y1="54" x2="62" y2="42"></line><line x1="72.39230484541326" y1="36" x2="82.78460969082653" y2="42"></line><line x1="82.78460969082653" y1="42" x2="72.39230484541326" y2="48"></line><line x1="62" y1="42" x2="72.39230484541326" y2="48"></line><line x1="82.78460969082653" y1="54" x2="82.78460969082653" y2="42"></line><line x1="72.39230484541326" y1="60" x2="72.39230484541326" y2="48"></line><line x1="62" y1="42" x2="51.607695154586736" y2="48"></line><line x1="41.21539030917347" y1="42" x2="51.607695154586736" y2="48"></line><line x1="51.607695154586736" y1="36" x2="41.21539030917347" y2="42"></line><line x1="51.607695154586736" y1="60" x2="51.607695154586736" y2="48"></line><line x1="41.21539030917347" y1="54" x2="41.21539030917347" y2="42"></line><line x1="72.39230484541326" y1="24" x2="82.78460969082653" y2="30"></line><line x1="82.78460969082653" y1="30" x2="72.39230484541326" y2="36"></line><line x1="72.39230484541326" y1="24" x2="62" y2="30"></line><line x1="72.39230484541326" y1="36" x2="72.39230484541326" y2="24"></line><line x1="82.78460969082653" y1="42" x2="82.78460969082653" y2="30"></line><line x1="62" y1="18" x2="72.39230484541326" y2="24"></line><line x1="72.39230484541326" y1="24" x2="62" y2="30"></line><line x1="51.607695154586736" y1="24" x2="62" y2="30"></line><line x1="62" y1="18" x2="51.607695154586736" y2="24"></line><line x1="62" y1="30" x2="62" y2="18"></line><line x1="72.39230484541326" y1="36" x2="72.39230484541326" y2="24"></line><line x1="62" y1="42" x2="62" y2="30"></line><line x1="51.607695154586736" y1="36" x2="51.607695154586736" y2="24"></line></g><g stroke="url(#cg-gradient)" stroke-width="1.3" stroke-linecap="round" stroke-linejoin="round"><line x1="51.607695154586736" y1="48" x2="41.21539030917347" y2="42"></line><line x1="51.607695154586736" y1="48" x2="41.21539030917347" y2="54"></line><line x1="41.21539030917347" y1="54" x2="30.823085463760208" y2="48"></line><line x1="41.21539030917347" y1="42" x2="30.823085463760208" y2="48"></line><line x1="51.607695154586736" y1="36" x2="41.21539030917347" y2="30"></line><line x1="51.607695154586736" y1="36" x2="41.21539030917347" y2="42"></line><line x1="41.21539030917347" y1="42" x2="30.823085463760208" y2="36"></line><line x1="41.21539030917347" y1="30" x2="30.823085463760208" y2="36"></line><line x1="41.21539030917347" y1="42" x2="41.21539030917347" y2="30"></line><line x1="51.607695154586736" y1="48" x2="51.607695154586736" y2="36"></line><line x1="41.21539030917347" y1="54" x2="41.21539030917347" y2="42"></line><line x1="30.823085463760208" y1="48" x2="30.823085463760208" y2="36"></line><line x1="51.607695154586736" y1="48" x2="62" y2="54"></line><line x1="62" y1="54" x2="51.607695154586736" y2="60"></line><line x1="41.21539030917347" y1="54" x2="51.607695154586736" y2="60"></line><line x1="51.607695154586736" y1="36" x2="62" y2="42"></line><line x1="62" y1="42" x2="51.607695154586736" y2="48"></line><line x1="41.21539030917347" y1="42" x2="51.607695154586736" y2="48"></line><line x1="62" y1="54" x2="62" y2="42"></line><line x1="51.607695154586736" y1="60" x2="51.607695154586736" y2="48"></line><line x1="62" y1="54" x2="72.39230484541326" y2="60"></line><line x1="72.39230484541326" y1="60" x2="62" y2="66"></line><line x1="51.607695154586736" y1="60" x2="62" y2="66"></line><line x1="62" y1="42" x2="72.39230484541326" y2="48"></line><line x1="72.39230484541326" y1="48" x2="62" y2="54"></line><line x1="51.607695154586736" y1="48" x2="62" y2="54"></line><line x1="72.39230484541326" y1="60" x2="72.39230484541326" y2="48"></line><line x1="62" y1="66" x2="62" y2="54"></line><line x1="72.39230484541326" y1="60" x2="82.78460969082653" y2="66"></line><line x1="82.78460969082653" y1="66" x2="72.39230484541326" y2="72"></line><line x1="62" y1="66" x2="72.39230484541326" y2="72"></line><line x1="72.39230484541326" y1="48" x2="82.78460969082653" y2="54"></line><line x1="82.78460969082653" y1="54" x2="72.39230484541326" y2="60"></line><line x1="62" y1="54" x2="72.39230484541326" y2="60"></line><line x1="82.78460969082653" y1="66" x2="82.78460969082653" y2="54"></line><line x1="72.39230484541326" y1="72" x2="72.39230484541326" y2="60"></line><line x1="82.78460969082653" y1="66" x2="93.17691453623979" y2="72"></line><line x1="93.17691453623979" y1="72" x2="82.78460969082653" y2="78"></line><line x1="72.39230484541326" y1="72" x2="82.78460969082653" y2="78"></line><line x1="82.78460969082653" y1="54" x2="93.17691453623979" y2="60"></line><line x1="93.17691453623979" y1="60" x2="82.78460969082653" y2="66"></line><line x1="72.39230484541326" y1="60" x2="82.78460969082653" y2="66"></line><line x1="93.17691453623979" y1="72" x2="93.17691453623979" y2="60"></line><line x1="82.78460969082653" y1="78" x2="82.78460969082653" y2="66"></line><line x1="51.607695154586736" y1="60" x2="41.21539030917347" y2="66"></line><line x1="30.823085463760208" y1="60" x2="41.21539030917347" y2="66"></line><line x1="41.21539030917347" y1="54" x2="30.823085463760208" y2="60"></line><line x1="51.607695154586736" y1="48" x2="41.21539030917347" y2="54"></line><line x1="30.823085463760208" y1="48" x2="41.21539030917347" y2="54"></line><line x1="41.21539030917347" y1="42" x2="30.823085463760208" y2="48"></line><line x1="41.21539030917347" y1="66" x2="41.21539030917347" y2="54"></line><line x1="30.823085463760208" y1="60" x2="30.823085463760208" y2="48"></line><line x1="62" y1="66" x2="51.607695154586736" y2="72"></line><line x1="41.21539030917347" y1="66" x2="51.607695154586736" y2="72"></line><line x1="62" y1="54" x2="51.607695154586736" y2="60"></line><line x1="41.21539030917347" y1="54" x2="51.607695154586736" y2="60"></line><line x1="51.607695154586736" y1="72" x2="51.607695154586736" y2="60"></line><line x1="72.39230484541326" y1="72" x2="62" y2="78"></line><line x1="51.607695154586736" y1="72" x2="62" y2="78"></line><line x1="72.39230484541326" y1="60" x2="62" y2="66"></line><line x1="51.607695154586736" y1="60" x2="62" y2="66"></line><line x1="62" y1="78" x2="62" y2="66"></line><line x1="62" y1="42" x2="72.39230484541326" y2="48"></line><line x1="72.39230484541326" y1="48" x2="62" y2="54"></line><line x1="62" y1="42" x2="51.607695154586736" y2="48"></line><line x1="62" y1="30" x2="72.39230484541326" y2="36"></line><line x1="72.39230484541326" y1="36" x2="62" y2="42"></line><line x1="62" y1="30" x2="51.607695154586736" y2="36"></line><line x1="62" y1="42" x2="62" y2="30"></line><line x1="72.39230484541326" y1="48" x2="72.39230484541326" y2="36"></line><line x1="72.39230484541326" y1="48" x2="82.78460969082653" y2="54"></line><line x1="82.78460969082653" y1="54" x2="72.39230484541326" y2="60"></line><line x1="72.39230484541326" y1="36" x2="82.78460969082653" y2="42"></line><line x1="82.78460969082653" y1="42" x2="72.39230484541326" y2="48"></line><line x1="82.78460969082653" y1="54" x2="82.78460969082653" y2="42"></line><line x1="82.78460969082653" y1="54" x2="93.17691453623979" y2="60"></line><line x1="93.17691453623979" y1="60" x2="82.78460969082653" y2="66"></line><line x1="82.78460969082653" y1="42" x2="93.17691453623979" y2="48"></line><line x1="93.17691453623979" y1="48" x2="82.78460969082653" y2="54"></line><line x1="93.17691453623979" y1="60" x2="93.17691453623979" y2="48"></line><line x1="51.607695154586736" y1="24" x2="62" y2="30"></line><line x1="62" y1="30" x2="51.607695154586736" y2="36"></line><line x1="41.21539030917347" y1="30" x2="51.607695154586736" y2="36"></line><line x1="51.607695154586736" y1="24" x2="41.21539030917347" y2="30"></line><line x1="51.607695154586736" y1="36" x2="51.607695154586736" y2="24"></line><line x1="62" y1="42" x2="62" y2="30"></line><line x1="51.607695154586736" y1="48" x2="51.607695154586736" y2="36"></line><line x1="41.21539030917347" y1="42" x2="41.21539030917347" y2="30"></line><line x1="62" y1="30" x2="72.39230484541326" y2="36"></line><line x1="72.39230484541326" y1="36" x2="62" y2="42"></line><line x1="51.607695154586736" y1="36" x2="62" y2="42"></line><line x1="72.39230484541326" y1="48" x2="72.39230484541326" y2="36"></line><line x1="62" y1="54" x2="62" y2="42"></line><line x1="72.39230484541326" y1="36" x2="82.78460969082653" y2="42"></line><line x1="82.78460969082653" y1="42" x2="72.39230484541326" y2="48"></line><line x1="62" y1="42" x2="72.39230484541326" y2="48"></line><line x1="82.78460969082653" y1="54" x2="82.78460969082653" y2="42"></line><line x1="72.39230484541326" y1="60" x2="72.39230484541326" y2="48"></line><line x1="62" y1="42" x2="51.607695154586736" y2="48"></line><line x1="41.21539030917347" y1="42" x2="51.607695154586736" y2="48"></line><line x1="51.607695154586736" y1="36" x2="41.21539030917347" y2="42"></line><line x1="51.607695154586736" y1="60" x2="51.607695154586736" y2="48"></line><line x1="41.21539030917347" y1="54" x2="41.21539030917347" y2="42"></line><line x1="72.39230484541326" y1="24" x2="82.78460969082653" y2="30"></line><line x1="82.78460969082653" y1="30" x2="72.39230484541326" y2="36"></line><line x1="72.39230484541326" y1="24" x2="62" y2="30"></line><line x1="72.39230484541326" y1="36" x2="72.39230484541326" y2="24"></line><line x1="82.78460969082653" y1="42" x2="82.78460969082653" y2="30"></line><line x1="62" y1="18" x2="72.39230484541326" y2="24"></line><line x1="72.39230484541326" y1="24" x2="62" y2="30"></line><line x1="51.607695154586736" y1="24" x2="62" y2="30"></line><line x1="62" y1="18" x2="51.607695154586736" y2="24"></line><line x1="62" y1="30" x2="62" y2="18"></line><line x1="72.39230484541326" y1="36" x2="72.39230484541326" y2="24"></line><line x1="62" y1="42" x2="62" y2="30"></line><line x1="51.607695154586736" y1="36" x2="51.607695154586736" y2="24"></line></g><g filter="url(#cg-glow)"><circle cx="41.21539030917347" cy="42" r="2" fill="white"></circle><circle cx="51.607695154586736" cy="48" r="2" fill="white"></circle><circle cx="41.21539030917347" cy="54" r="2" fill="white"></circle><circle cx="30.823085463760208" cy="48" r="2" fill="white"></circle><circle cx="41.21539030917347" cy="30" r="2" fill="white"></circle><circle cx="51.607695154586736" cy="36" r="2" fill="white"></circle><circle cx="41.21539030917347" cy="42" r="2" fill="white"></circle><circle cx="30.823085463760208" cy="36" r="2" fill="white"></circle><circle cx="62" cy="54" r="2" fill="white"></circle><circle cx="51.607695154586736" cy="60" r="2" fill="white"></circle><circle cx="62" cy="42" r="2" fill="white"></circle><circle cx="51.607695154586736" cy="48" r="2" fill="white"></circle><circle cx="72.39230484541326" cy="60" r="2" fill="white"></circle><circle cx="62" cy="66" r="2" fill="white"></circle><circle cx="72.39230484541326" cy="48" r="2" fill="white"></circle><circle cx="62" cy="54" r="2" fill="white"></circle><circle cx="82.78460969082653" cy="66" r="2" fill="white"></circle><circle cx="72.39230484541326" cy="72" r="2" fill="white"></circle><circle cx="82.78460969082653" cy="54" r="2" fill="white"></circle><circle cx="72.39230484541326" cy="60" r="2" fill="white"></circle><circle cx="93.17691453623979" cy="72" r="2" fill="white"></circle><circle cx="82.78460969082653" cy="78" r="2" fill="white"></circle><circle cx="93.17691453623979" cy="60" r="2" fill="white"></circle><circle cx="82.78460969082653" cy="66" r="2" fill="white"></circle><circle cx="41.21539030917347" cy="66" r="2" fill="white"></circle><circle cx="30.823085463760208" cy="60" r="2" fill="white"></circle><circle cx="41.21539030917347" cy="54" r="2" fill="white"></circle><circle cx="30.823085463760208" cy="48" r="2" fill="white"></circle><circle cx="51.607695154586736" cy="72" r="2" fill="white"></circle><circle cx="51.607695154586736" cy="60" r="2" fill="white"></circle><circle cx="62" cy="78" r="2" fill="white"></circle><circle cx="62" cy="66" r="2" fill="white"></circle><circle cx="62" cy="42" r="2" fill="white"></circle><circle cx="72.39230484541326" cy="48" r="2" fill="white"></circle><circle cx="62" cy="30" r="2" fill="white"></circle><circle cx="72.39230484541326" cy="36" r="2" fill="white"></circle><circle cx="82.78460969082653" cy="54" r="2" fill="white"></circle><circle cx="82.78460969082653" cy="42" r="2" fill="white"></circle><circle cx="93.17691453623979" cy="60" r="2" fill="white"></circle><circle cx="93.17691453623979" cy="48" r="2" fill="white"></circle><circle cx="51.607695154586736" cy="24" r="2" fill="white"></circle><circle cx="62" cy="30" r="2" fill="white"></circle><circle cx="51.607695154586736" cy="36" r="2" fill="white"></circle><circle cx="41.21539030917347" cy="30" r="2" fill="white"></circle><circle cx="72.39230484541326" cy="36" r="2" fill="white"></circle><circle cx="62" cy="42" r="2" fill="white"></circle><circle cx="82.78460969082653" cy="42" r="2" fill="white"></circle><circle cx="72.39230484541326" cy="48" r="2" fill="white"></circle><circle cx="51.607695154586736" cy="48" r="2" fill="white"></circle><circle cx="41.21539030917347" cy="42" r="2" fill="white"></circle><circle cx="72.39230484541326" cy="24" r="2" fill="white"></circle><circle cx="82.78460969082653" cy="30" r="2" fill="white"></circle><circle cx="62" cy="18" r="2" fill="white"></circle><circle cx="72.39230484541326" cy="24" r="2" fill="white"></circle><circle cx="62" cy="30" r="2" fill="white"></circle><circle cx="51.607695154586736" cy="24" r="2" fill="white"></circle></g></svg>